<svg height="470pt" viewBox="0 -19 470.31327 470" width="470pt" xmlns="http://www.w3.org/2000/svg" xmlns:xlink="http://www.w3.org/1999/xlink"><linearGradient id="a"><stop offset="0" stop-color="#00efd1"/><stop offset="1" stop-color="#00acea"/></linearGradient><linearGradient id="b" gradientUnits="userSpaceOnUse" x1="235.156633" x2="235.156633" xlink:href="#a" y1="-22.574172" y2="442.481828"/><linearGradient id="c" gradientUnits="userSpaceOnUse" x1="159.656633" x2="159.656633" xlink:href="#a" y1="-22.574172" y2="442.481828"/><linearGradient id="d" gradientUnits="userSpaceOnUse" x1="310.656633" x2="310.656633" xlink:href="#a" y1="-22.574172" y2="442.481828"/><path d="m430.15625 209.597656v-82.792968c.050781-2.117188-.742188-4.164063-2.207031-5.695313-1.464844-1.527344-3.476563-2.410156-5.59375-2.449219h-180.199219v-36.332031c20.992188-3.601563 35.820312-22.550781 34.273438-43.792969-1.546876-21.242187-18.96875-37.84375-40.261719-38.367187-21.289063-.523438-39.503907 15.203125-42.09375 36.34375-2.585938 21.140625 11.292969 40.792969 32.082031 45.425781v36.722656h-178.199219c-2.117187.039063-4.128906.921875-5.59375 2.449219-1.460937 1.53125-2.257812 3.578125-2.207031 5.695313v82.792968c-23.269531 4.300782-40.15625 24.59375-40.15625 48.257813 0 23.660156 16.886719 43.957031 40.15625 48.253906v117.050781c0 4.417969 3.382812 8.5 7.800781 8.5h374.398438c4.417969 0 7.800781-4.082031 7.800781-8.5v-117.050781c23.269531-4.296875 40.15625-24.59375 40.15625-48.253906 0-23.664063-16.886719-43.957031-40.15625-48.257813zm-220.386719-168.050781c0-14.023437 11.367188-25.390625 25.386719-25.390625 14.023438 0 25.386719 11.367188 25.386719 25.390625 0 14.019531-11.363281 25.386719-25.386719 25.386719-14.015625-.015625-25.371094-11.371094-25.386719-25.386719zm-193.769531 216.3125c-.011719-14.839844 9.867188-27.867187 24.15625-31.855469v63.699219c-14.285156-3.988281-24.164062-17.011719-24.15625-31.84375zm398.15625 157.800781h-358v-281h358zm16-125.957031v-63.699219c14.28125 4.003906 24.152344 17.019532 24.152344 31.851563 0 14.828125-9.871094 27.847656-24.152344 31.847656zm0 0" fill="url(#b)"/><path d="m336.15625 293.660156c0-4.417968-3.582031-8-8-8h-186c-4.417969 0-8 3.582032-8 8v82c0 4.417969 3.582031 8 8 8h186c4.417969 0 8-3.582031 8-8zm-16 8v25h-170v-25zm-170 66v-25h170v25zm0 0" fill="url(#b)"/><path d="m194.15625 193.660156c0-4.417968-3.582031-8-8-8h-53c-4.417969 0-8 3.582032-8 8v53c0 4.417969 3.582031 8 8 8h53c4.417969 0 8-3.582031 8-8zm-53 8h37v37h-37zm0 0" fill="url(#c)"/><path d="m345.15625 193.660156c0-4.417968-3.582031-8-8-8h-53c-4.417969 0-8 3.582032-8 8v53c0 4.417969 3.582031 8 8 8h53c4.417969 0 8-3.582031 8-8zm-53 8h37v37h-37zm0 0" fill="url(#d)"/></svg>