<?xml version="1.0" encoding="iso-8859-1"?>
<!-- Generator: Adobe Illustrator 19.0.0, SVG Export Plug-In . SVG Version: 6.00 Build 0)  -->
<svg version="1.1" id="Capa_1" xmlns="http://www.w3.org/2000/svg" xmlns:xlink="http://www.w3.org/1999/xlink" x="0px" y="0px"
	 viewBox="0 0 512 512" style="enable-background:new 0 0 512 512;" xml:space="preserve">
<g>
	<g transform="translate(1 1)">
		<g>
			<polygon style="fill:#E7EBF4;" points="208.579,220.867 239.555,195.787 186.648,136.899 152.6,152.6 191.341,195.787 
				161.133,219.919 161.987,220.867 			"/>
			<path style="fill:#E7EBF4;" d="M340.333,348.867c23.564,0,42.667-19.103,42.667-42.667c0-23.564-19.103-42.667-42.667-42.667
				H50.2c-23.564,0-42.667,19.103-42.667,42.667c0,23.564,19.103,42.667,42.667,42.667H340.333z"/>
		</g>
		<path style="fill:#B2CDF8;" d="M229.4,400.067c9.426,0,17.067,7.641,17.067,17.067c0,9.426-7.641,17.067-17.067,17.067
			c9.426,0,17.067,7.641,17.067,17.067c0,9.426-7.641,17.067-17.067,17.067h85.333c6.792-0.009,13.309,2.685,18.112,7.488
			c4.803,4.803,7.497,11.32,7.488,18.112v8.533H50.2l0-8.533c-0.009-6.792,2.685-13.309,7.488-18.112s11.32-7.497,18.112-7.488
			h84.736c-9.189-0.327-16.469-7.872-16.469-17.067c0-9.195,7.28-16.739,16.469-17.067c-9.305-0.328-16.631-8.051-16.468-17.36
			c0.163-9.309,7.755-16.771,17.066-16.773H75.8c-6.792,0.009-13.309-2.685-18.112-7.488c-4.803-4.803-7.497-11.32-7.488-18.112
			V237.933c-0.009-6.792,2.685-13.309,7.488-18.112c4.803-4.803,11.32-7.497,18.112-7.488h238.933
			c6.792-0.009,13.309,2.685,18.112,7.488c4.803,4.803,7.497,11.32,7.488,18.112v136.533c0.009,6.792-2.685,13.309-7.488,18.112
			c-4.803,4.803-11.32,7.497-18.112,7.488H229.4z"/>
		<path style="fill:#E7EBF4;" d="M204.653,400.067c9.086,0.466,16.214,7.969,16.214,17.067c0,9.098-7.128,16.601-16.214,17.067
			c9.25,0.468,16.44,8.224,16.209,17.483s-7.801,16.645-17.062,16.651h85.333c6.792-0.009,13.309,2.685,18.112,7.488
			c4.803,4.803,7.497,11.32,7.488,18.112v8.533H50.2l0-8.533c-0.009-6.792,2.685-13.309,7.488-18.112s11.32-7.497,18.112-7.488
			h84.565c-0.065-0.009-0.125-0.039-0.171-0.085c-0.832,0.004-1.661-0.082-2.475-0.256c-1.888-0.398-3.702-1.089-5.376-2.048
			l-1.024-0.768c-1.248-0.863-2.368-1.897-3.328-3.072c-0.617-0.741-1.161-1.542-1.621-2.389c-0.482-0.751-0.883-1.552-1.195-2.389
			c-0.414-1.101-0.7-2.247-0.853-3.413c-0.342-1.747-0.342-3.544,0-5.291c0.153-1.167,0.439-2.312,0.853-3.413
			c0.312-0.837,0.712-1.638,1.195-2.389v-0.085c0.471-0.815,1.013-1.586,1.621-2.304c0.423-0.594,0.942-1.113,1.536-1.536
			c0.211-0.297,0.471-0.557,0.768-0.768c0.32-0.283,0.663-0.54,1.024-0.768l1.024-0.768c1.674-0.959,3.488-1.65,5.376-2.048
			c0.698-0.174,1.414-0.26,2.133-0.256c0.043,0.169,0.206,0.28,0.379,0.259c0.174-0.022,0.304-0.169,0.304-0.344
			c0-0.175-0.13-0.322-0.304-0.344c-0.173-0.022-0.336,0.089-0.379,0.259c-0.663,0.005-1.323-0.082-1.963-0.256
			c-1.949-0.374-3.823-1.066-5.547-2.048l-1.024-0.768c-1.248-0.863-2.368-1.897-3.328-3.072c-0.608-0.718-1.151-1.489-1.621-2.304
			v-0.085c-0.482-0.751-0.883-1.552-1.195-2.389c-0.414-1.101-0.7-2.247-0.853-3.413c-0.174-0.871-0.26-1.757-0.256-2.645
			c0.028-9.414,7.652-17.039,17.067-17.067H75.8c-6.792,0.009-13.309-2.685-18.112-7.488c-4.803-4.803-7.497-11.32-7.488-18.112
			V237.933c-0.009-6.792,2.685-13.309,7.488-18.112c4.803-4.803,11.32-7.497,18.112-7.488h213.333
			c6.792-0.009,13.309,2.685,18.112,7.488c4.803,4.803,7.497,11.32,7.488,18.112v136.533c0.009,6.792-2.685,13.309-7.488,18.112
			c-4.803,4.803-11.32,7.497-18.112,7.488H204.653z"/>
		<path style="fill:#B2CDF8;" d="M246.467,451.267c-0.028,9.414-7.652,17.039-17.067,17.067h-25.6
			c9.262-0.005,16.831-7.392,17.062-16.651c0.231-9.259-6.959-17.014-16.209-17.483c9.086-0.466,16.214-7.969,16.214-17.067
			c0-9.098-7.128-16.601-16.214-17.067H229.4c9.426,0,17.067,7.641,17.067,17.067S238.826,434.2,229.4,434.2
			C238.814,434.228,246.439,441.852,246.467,451.267z"/>
		<path style="fill:#E7EBF4;" d="M220.867,451.267c-0.028,9.414-7.653,17.039-17.067,17.067h-43.435
			c-0.065-0.009-0.125-0.039-0.171-0.085c-0.832,0.004-1.661-0.082-2.475-0.256c-1.888-0.398-3.702-1.089-5.376-2.048l-1.024-0.768
			c-1.248-0.863-2.368-1.897-3.328-3.072c-0.617-0.741-1.161-1.542-1.621-2.389c-0.482-0.751-0.883-1.552-1.195-2.389
			c-0.414-1.101-0.7-2.247-0.853-3.413c-0.342-1.747-0.342-3.544,0-5.291c0.153-1.167,0.439-2.312,0.853-3.413
			c0.312-0.837,0.712-1.638,1.195-2.389v-0.085c0.471-0.815,1.013-1.586,1.621-2.304c0.423-0.594,0.942-1.113,1.536-1.536
			c0.211-0.297,0.471-0.557,0.768-0.768c0.32-0.283,0.663-0.54,1.024-0.768l1.024-0.768c1.674-0.959,3.488-1.65,5.376-2.048
			c0.698-0.174,1.414-0.26,2.133-0.256c0.043,0.169,0.206,0.28,0.379,0.259c0.174-0.022,0.304-0.169,0.304-0.344
			s-0.13-0.322-0.304-0.344c-0.173-0.022-0.336,0.089-0.379,0.259c-0.663,0.005-1.323-0.082-1.963-0.256
			c-1.949-0.374-3.823-1.066-5.547-2.048l-1.024-0.768c-1.248-0.863-2.368-1.897-3.328-3.072c-0.608-0.718-1.151-1.489-1.621-2.304
			v-0.085c-0.482-0.751-0.883-1.552-1.195-2.389c-0.414-1.101-0.7-2.247-0.853-3.413c-0.174-0.871-0.26-1.757-0.256-2.645
			c0.027-9.414,7.652-17.039,17.067-17.067h43.52c9.086,0.466,16.214,7.969,16.214,17.067c0,9.098-7.128,16.601-16.214,17.067
			C213.717,434.714,220.818,442.188,220.867,451.267z"/>
		<path style="fill:#B2CDF8;" d="M340.333,493.933l0,8.533h-25.6v-8.533c0.009-6.792-2.685-13.309-7.488-18.112
			c-4.803-4.803-11.32-7.497-18.112-7.488h25.6c6.792-0.009,13.309,2.685,18.112,7.488
			C337.648,480.624,340.342,487.141,340.333,493.933z"/>
		<g>
			<path style="fill:#E7EBF4;" d="M314.733,493.933v8.533H50.2l0-8.533c-0.009-6.792,2.685-13.309,7.488-18.112
				s11.32-7.497,18.112-7.488h213.333c6.792-0.009,13.309,2.685,18.112,7.488C312.048,480.624,314.742,487.141,314.733,493.933z"/>
			<path style="fill:#E7EBF4;" d="M118.467,246.467h17.067c9.426,0,17.067,7.641,17.067,17.067V280.6
				c0,9.426-7.641,17.067-17.067,17.067h-17.067c-9.426,0-17.067-7.641-17.067-17.067v-17.067
				C101.4,254.108,109.041,246.467,118.467,246.467z"/>
			<path style="fill:#E7EBF4;" d="M255,246.467h17.067c9.426,0,17.067,7.641,17.067,17.067V280.6
				c0,9.426-7.641,17.067-17.067,17.067H255c-9.426,0-17.067-7.641-17.067-17.067v-17.067
				C237.933,254.108,245.574,246.467,255,246.467z"/>
			<circle style="fill:#E7EBF4;" cx="161.133" cy="135.533" r="25.6"/>
			<path style="fill:#E7EBF4;" d="M502.467,16.067V169.65c0,4.713-3.821,8.533-8.533,8.533H459.8l-35.84,56.32
				c-2.204,2.938-6.041,4.137-9.525,2.975c-3.485-1.161-5.835-4.422-5.835-8.095v-51.2h-93.867c-4.713,0-8.533-3.821-8.533-8.533
				V16.067c0-4.713,3.821-8.533,8.533-8.533h179.2C498.646,7.533,502.467,11.354,502.467,16.067z"/>
		</g>
		<g>
			<rect x="101.4" y="365.933" style="fill:#F5F5F5;" width="187.733" height="34.133"/>
			<path style="fill:#F5F5F5;" d="M289.133,348.867v17.067H101.4v-17.067c0.028-9.414,7.652-17.039,17.067-17.067h153.6
				C281.481,331.828,289.106,339.452,289.133,348.867z"/>
		</g>
		<path style="fill:#B2CDF8;" d="M502.467,16.067v153.6c-0.014,4.707-3.826,8.519-8.533,8.533h-25.6
			c4.707-0.014,8.519-3.826,8.533-8.533v-153.6c-0.014-4.707-3.826-8.519-8.533-8.533h25.6
			C498.64,7.547,502.453,11.36,502.467,16.067z"/>
	</g>
	<g transform="translate(1 25)">
		<path style="fill:#FFFFFF;" d="M101.4,444.333l-25.6,0c-6.792-0.009-13.309,2.685-18.112,7.488
			c-4.803,4.803-7.497,11.32-7.488,18.112l0,8.533h25.6v-8.533c-0.009-6.792,2.685-13.309,7.488-18.112
			S94.608,444.324,101.4,444.333z"/>
		<path style="fill:#FFFFFF;" d="M50.2,350.467c-0.009,6.792,2.685,13.309,7.488,18.112c4.803,4.803,11.32,7.497,18.112,7.488
			l25.6,0c-6.792,0.009-13.309-2.685-18.112-7.488c-4.803-4.803-7.497-11.319-7.488-18.112v-25.6
			c-23.564,0-42.667-19.103-42.667-42.667s19.103-42.667,42.667-42.667v-25.6c-0.009-6.792,2.685-13.309,7.488-18.112
			s11.32-7.497,18.112-7.488l-25.6,0c-6.792-0.009-13.309,2.685-18.112,7.488c-4.803,4.803-7.497,11.32-7.488,18.112v25.6
			c-23.564,0-42.667,19.103-42.667,42.667s19.103,42.667,42.667,42.667V350.467z"/>
	</g>
	<g>
		<path style="fill:#FFFFFF;" d="M42.667,503.467v-6.933c-0.02-1.02,0.014-2.455,0.116-4.076c0.111-1.535,0.318-3.061,0.618-4.57
			c2.623-12.365,11.857-22.272,24.007-25.758c2.966-0.836,6.029-1.279,9.11-1.318l7.003-0.011h231.633
			c3.066-0.025,6.123,0.345,9.094,1.101c12.459,3.192,22.057,13.13,24.814,25.693c0.591,2.904,0.862,5.864,0.806,8.826v7.047H332.8
			v-7.047c0.064-1.737-0.074-3.474-0.411-5.179c-0.679-3.071-2.194-5.894-4.378-8.157c-2.182-2.266-4.954-3.876-8.002-4.65
			c-1.586-0.407-3.219-0.598-4.856-0.567H83.52l-6.863,0.01c-1.546,0.026-3.081,0.25-4.57,0.666
			c-2.978,0.844-5.665,2.493-7.765,4.767c-2.109,2.262-3.567,5.053-4.217,8.077c-0.306,1.698-0.431,3.423-0.371,5.147v6.933H42.667z
			"/>
		<g>
			<path style="fill:#51A1FF;" d="M102.378,475.392c0.77-0.815,1.379-1.77,1.792-2.813c0.438-1.027,0.67-2.13,0.683-3.246
				c-0.014-3.45-2.096-6.556-5.282-7.879c-3.187-1.323-6.856-0.606-9.31,1.82l-1.025,1.279c-0.324,0.476-0.583,0.993-0.771,1.538
				c-0.246,0.484-0.417,1.002-0.508,1.537c-0.096,0.563-0.153,1.133-0.171,1.704c0.032,2.259,0.915,4.423,2.475,6.059
				C93.658,478.613,98.981,478.613,102.378,475.392L102.378,475.392z"/>
			<path style="fill:#51A1FF;" d="M136.533,238.933h-17.067c-14.132,0.015-25.585,11.468-25.6,25.6V281.6
				c0.015,14.132,11.468,25.585,25.6,25.6h17.067c14.132-0.015,25.585-11.468,25.6-25.6v-17.067
				C162.118,250.401,150.665,238.949,136.533,238.933z M145.067,281.6c-0.005,4.711-3.822,8.529-8.533,8.533h-17.067
				c-4.711-0.005-8.529-3.822-8.533-8.533v-17.067c0.005-4.711,3.822-8.529,8.533-8.533h17.067c4.711,0.005,8.529,3.822,8.533,8.533
				V281.6z"/>
			<path style="fill:#51A1FF;" d="M273.067,238.933H256c-14.132,0.015-25.585,11.468-25.6,25.6V281.6
				c0.015,14.132,11.468,25.585,25.6,25.6h17.067c14.132-0.015,25.585-11.468,25.6-25.6v-17.067
				C298.651,250.401,287.199,238.949,273.067,238.933z M281.6,281.6c-0.005,4.711-3.822,8.529-8.533,8.533H256
				c-4.711-0.005-8.529-3.822-8.533-8.533v-17.067c0.005-4.711,3.822-8.529,8.533-8.533h17.067c4.711,0.005,8.529,3.822,8.533,8.533
				V281.6z"/>
			<path style="fill:#51A1FF;" d="M349.867,256.771v-17.837c-0.02-18.843-15.29-34.113-34.133-34.133H235.82l9.751-7.092
				c2.02-1.466,3.296-3.744,3.492-6.232c0.196-2.488-0.709-4.937-2.475-6.701l-50.555-50.559
				c-1.198-18.188-16.505-32.208-34.728-31.807c-18.223,0.401-32.899,15.08-33.296,33.304
				c-0.397,18.223,13.627,33.527,31.815,34.721l19.365,19.308L158.204,204.8H76.8c-18.843,0.02-34.113,15.29-34.133,34.133v17.837
				C18.038,260.907,0,282.227,0,307.2s18.038,46.293,42.667,50.429v17.837c0.02,18.843,15.29,34.113,34.133,34.133h61.306
				c-3.296,8.807-1.326,18.721,5.086,25.6c-6.413,6.879-8.382,16.793-5.085,25.6h-7.653c-4.713,0-8.533,3.821-8.533,8.533
				c0,4.713,3.821,8.533,8.533,8.533h184.701c1.636-0.031,3.269,0.16,4.855,0.567c6.214,1.59,11.002,6.543,12.38,12.807
				c0.242,1.217,0.377,2.452,0.403,3.693H59.733c0.027-1.901,0.35-3.787,0.956-5.589c1.244-3.616,3.673-6.705,6.893-8.767
				c2.908-2.653,4.134-6.683,3.198-10.506c-0.736-2.51-2.68-4.484-5.178-5.259c-2.498-0.775-5.218-0.247-7.245,1.406
				c-6.445,4.134-11.308,10.32-13.802,17.558c-1.223,3.594-1.861,7.36-1.889,11.156v8.533c-0.001,2.263,0.898,4.434,2.499,6.035
				c1.6,1.6,3.771,2.499,6.035,2.499h289.421c2.263,0.001,4.434-0.898,6.035-2.499c1.6-1.6,2.499-3.771,2.499-6.035h0.713v-7.047
				c0.056-2.963-0.214-5.922-0.806-8.826c-2.756-12.563-12.354-22.501-24.814-25.693c-2.971-0.756-6.028-1.126-9.094-1.101h-60.726
				c3.296-8.807,1.326-18.721-5.086-25.6c6.412-6.879,8.382-16.793,5.086-25.6h61.306c18.843-0.02,34.113-15.29,34.133-34.133
				v-17.837c24.628-4.136,42.667-25.456,42.667-50.429S374.495,260.907,349.867,256.771z M145.067,136.533
				c0-9.426,7.641-17.067,17.067-17.067c9.426,0,17.067,7.641,17.067,17.067c0,9.426-7.641,17.067-17.067,17.067
				C152.712,153.589,145.077,145.955,145.067,136.533z M198.367,184.767l-18.995-18.941c4.978-2.938,9.13-7.092,12.065-12.072
				l36.022,36.029L206.805,204.8H187.48l9.836-7.058c2.036-1.462,3.327-3.746,3.529-6.244
				C201.048,188.998,200.141,186.537,198.367,184.767L198.367,184.767z M17.067,307.2c0.045-15.521,10.568-29.053,25.6-32.921
				v65.842C27.635,336.253,17.112,322.721,17.067,307.2z M281.6,358.4H110.933v-8.533c0.005-4.711,3.822-8.529,8.533-8.533h153.6
				c4.711,0.005,8.529,3.822,8.533,8.533V358.4z M110.933,375.467H281.6v17.067H110.933V375.467z M238.933,418.133
				c-0.005,4.711-3.822,8.529-8.533,8.533c-4.713,0-8.533,3.82-8.533,8.533s3.82,8.533,8.533,8.533s8.533,3.82,8.533,8.533
				s-3.821,8.533-8.533,8.533h-68.267c-4.713,0-8.533-3.82-8.533-8.533s3.821-8.533,8.533-8.533c4.713,0,8.533-3.821,8.533-8.533
				s-3.821-8.533-8.533-8.533c-4.713,0-8.533-3.82-8.533-8.533s3.821-8.533,8.533-8.533H230.4
				C235.111,409.605,238.929,413.422,238.933,418.133z M332.8,375.467c-0.011,9.421-7.645,17.056-17.067,17.067h-17.067v-42.667
				c-0.015-14.132-11.468-25.585-25.6-25.6h-153.6c-14.132,0.015-25.585,11.468-25.6,25.6v42.667H76.8
				c-9.421-0.011-17.056-7.645-17.067-17.067V238.933c0.011-9.421,7.645-17.056,17.067-17.067h238.933
				c9.421,0.011,17.056,7.645,17.067,17.067V375.467z M349.867,340.121v-65.842c15.058,3.827,25.6,17.384,25.6,32.921
				S364.925,336.293,349.867,340.121z"/>
			<path style="fill:#51A1FF;" d="M494.933,0h-179.2c-9.421,0.011-17.056,7.645-17.067,17.067V170.65
				c0.011,9.421,7.645,17.056,17.067,17.067H409.6v42.667c-0.075,7.372,4.657,13.934,11.675,16.192
				c7.196,2.447,15.14-0.209,19.417-6.492l33.325-52.367h20.917c9.421-0.011,17.056-7.645,17.067-17.067V17.067
				C511.989,7.645,504.355,0.011,494.933,0z M494.933,170.65h-25.6c-2.917,0.001-5.632,1.49-7.2,3.95l-35.467,55.783v-51.2
				c0.001-2.263-0.898-4.434-2.499-6.035c-1.6-1.6-3.771-2.499-6.035-2.499h-102.4V17.067l179.2-0.009V170.65z"/>
			<path style="fill:#51A1FF;" d="M349.867,102.4c2.264,0.003,4.435-0.897,6.033-2.5L384.8,71l28.213,21.159
				c3.395,2.556,8.155,2.218,11.154-0.792l28.1-28.1v5c0,4.713,3.82,8.533,8.533,8.533s8.533-3.82,8.533-8.533v-25.6
				c-0.018-1.022-0.222-2.032-0.602-2.98c-0.114-0.278-0.242-0.55-0.386-0.814c-0.852-1.745-2.282-3.14-4.046-3.95
				c-0.076-0.033-0.133-0.094-0.211-0.127l-0.022-0.013c-0.947-0.376-1.954-0.576-2.972-0.591c-0.104-0.003-0.19-0.059-0.294-0.059
				h-25.6c-4.713,0-8.533,3.821-8.533,8.533s3.82,8.533,8.533,8.533h5l-22.867,22.867l-28.212-21.158
				c-3.393-2.56-8.156-2.222-11.154,0.792l-34.133,34.133c-2.44,2.44-3.169,6.11-1.849,9.298
				C343.305,100.32,346.416,102.399,349.867,102.4z"/>
			<path style="fill:#51A1FF;" d="M349.867,153.6c2.263,0.001,4.434-0.898,6.035-2.499s2.499-3.771,2.499-6.035V128
				c0-4.713-3.821-8.533-8.533-8.533c-4.713,0-8.533,3.82-8.533,8.533v17.067c-0.001,2.263,0.898,4.434,2.499,6.035
				S347.603,153.601,349.867,153.6z"/>
			<path style="fill:#51A1FF;" d="M384,93.867c-2.263-0.001-4.434,0.898-6.035,2.499s-2.499,3.771-2.499,6.035v42.667
				c0,4.713,3.821,8.533,8.533,8.533s8.533-3.821,8.533-8.533V102.4c0.001-2.263-0.898-4.434-2.499-6.035
				C388.434,94.765,386.263,93.866,384,93.867z"/>
			<path style="fill:#51A1FF;" d="M418.133,110.933c-2.263-0.001-4.434,0.898-6.035,2.499c-1.6,1.6-2.499,3.771-2.499,6.035v25.6
				c0,4.713,3.821,8.533,8.533,8.533s8.533-3.821,8.533-8.533v-25.6c0.001-2.263-0.898-4.434-2.499-6.035
				C422.568,111.832,420.397,110.933,418.133,110.933z"/>
			<path style="fill:#51A1FF;" d="M452.267,93.867c-2.263-0.001-4.434,0.898-6.035,2.499c-1.6,1.6-2.499,3.771-2.499,6.035v42.667
				c0,4.713,3.82,8.533,8.533,8.533s8.533-3.821,8.533-8.533V102.4c0.001-2.263-0.898-4.434-2.499-6.035
				C456.701,94.765,454.53,93.866,452.267,93.867z"/>
		</g>
	</g>
</g>
<g>
</g>
<g>
</g>
<g>
</g>
<g>
</g>
<g>
</g>
<g>
</g>
<g>
</g>
<g>
</g>
<g>
</g>
<g>
</g>
<g>
</g>
<g>
</g>
<g>
</g>
<g>
</g>
<g>
</g>
</svg>
